<svg width="108" height="108" viewBox="0 0 108 108" fill="none" xmlns="http://www.w3.org/2000/svg">
<path fill-rule="evenodd" clip-rule="evenodd" d="M40.4999 28.125C38.8748 28.125 37.2656 28.4451 35.7642 29.067C34.2628 29.6889 32.8986 30.6004 31.7495 31.7496C30.6003 32.8987 29.6888 34.2629 29.0669 35.7643C28.445 37.2657 28.1249 38.8749 28.1249 40.5C28.1249 42.1251 28.445 43.7343 29.0669 45.2357C29.6888 46.7371 30.6003 48.1013 31.7495 49.2504C32.8986 50.3996 34.2628 51.3111 35.7642 51.933C37.2656 52.5549 38.8748 52.875 40.4999 52.875C43.782 52.875 46.9296 51.5712 49.2504 49.2504C51.5711 46.9297 52.8749 43.7821 52.8749 40.5C52.8749 37.2179 51.5711 34.0703 49.2504 31.7496C46.9296 29.4288 43.782 28.125 40.4999 28.125ZM34.8749 40.5C34.8749 39.0082 35.4675 37.5774 36.5224 36.5225C37.5773 35.4676 39.0081 34.875 40.4999 34.875C41.9918 34.875 43.4225 35.4676 44.4774 36.5225C45.5323 37.5774 46.1249 39.0082 46.1249 40.5C46.1249 41.9918 45.5323 43.4226 44.4774 44.4775C43.4225 45.5324 41.9918 46.125 40.4999 46.125C39.0081 46.125 37.5773 45.5324 36.5224 44.4775C35.4675 43.4226 34.8749 41.9918 34.8749 40.5ZM40.4999 55.125C35.1179 55.125 30.0824 56.205 26.2619 58.1175C22.6484 59.9265 19.1249 63.0495 19.1249 67.5V67.7835C19.1159 70.0785 19.1069 73.9485 22.7699 76.599C24.4709 77.8275 26.7164 78.615 29.4974 79.1145C32.3009 79.6185 35.8964 79.875 40.4999 79.875C45.1034 79.875 48.6989 79.6185 51.5024 79.1145C54.2834 78.615 56.5289 77.8275 58.2299 76.5945C61.8929 73.944 61.8839 70.0785 61.8749 67.779V67.5C61.8749 63.045 58.3514 59.9265 54.7379 58.1175C50.9174 56.2095 45.8819 55.125 40.4999 55.125ZM25.8749 67.5C25.8749 66.9825 26.3834 65.6055 29.2814 64.1565C31.9814 62.8065 35.9414 61.875 40.4999 61.875C45.0584 61.875 49.0229 62.8065 51.7184 64.1565C54.6164 65.6055 55.1249 66.9825 55.1249 67.5C55.1249 70.218 54.9494 70.6365 54.2699 71.1315C53.7209 71.5275 52.5914 72.0585 50.3099 72.4725C48.0509 72.8775 44.8964 73.125 40.4999 73.125C36.1034 73.125 32.9489 72.8775 30.6899 72.4725C28.4084 72.0585 27.2789 71.5275 26.7299 71.1315C26.0459 70.6365 25.8749 70.218 25.8749 67.5Z" fill="black"/>
<path d="M85.5 57.375C86.3951 57.375 87.2536 57.0194 87.8865 56.3865C88.5194 55.7535 88.875 54.8951 88.875 54C88.875 53.1049 88.5194 52.2465 87.8865 51.6135C87.2536 50.9806 86.3951 50.625 85.5 50.625H67.5C66.6049 50.625 65.7465 50.9806 65.1135 51.6135C64.4806 52.2465 64.125 53.1049 64.125 54C64.125 54.8951 64.4806 55.7535 65.1135 56.3865C65.7465 57.0194 66.6049 57.375 67.5 57.375H85.5ZM88.875 40.5C88.875 41.3951 88.5194 42.2535 87.8865 42.8865C87.2536 43.5194 86.3951 43.875 85.5 43.875H63C62.1049 43.875 61.2465 43.5194 60.6135 42.8865C59.9806 42.2535 59.625 41.3951 59.625 40.5C59.625 39.6049 59.9806 38.7465 60.6135 38.1135C61.2465 37.4806 62.1049 37.125 63 37.125H85.5C86.3951 37.125 87.2536 37.4806 87.8865 38.1135C88.5194 38.7465 88.875 39.6049 88.875 40.5ZM85.5 70.875C86.3951 70.875 87.2536 70.5194 87.8865 69.8865C88.5194 69.2535 88.875 68.3951 88.875 67.5C88.875 66.6049 88.5194 65.7465 87.8865 65.1135C87.2536 64.4806 86.3951 64.125 85.5 64.125H72C71.1049 64.125 70.2465 64.4806 69.6135 65.1135C68.9806 65.7465 68.625 66.6049 68.625 67.5C68.625 68.3951 68.9806 69.2535 69.6135 69.8865C70.2465 70.5194 71.1049 70.875 72 70.875H85.5Z" fill="black"/>
<path fill-rule="evenodd" clip-rule="evenodd" d="M44.7479 14.625H63.2519C71.5229 14.625 78.0749 14.625 83.2004 15.3135C88.4744 16.0245 92.7449 17.5185 96.1154 20.8845C99.4814 24.255 100.975 28.5255 101.686 33.7995C102.375 38.9295 102.375 45.477 102.375 53.748V54.252C102.375 62.523 102.375 69.075 101.686 74.2005C100.975 79.4745 99.4814 83.745 96.1154 87.1155C92.7449 90.4815 88.4744 91.9755 83.2004 92.6865C78.0704 93.375 71.5229 93.375 63.2519 93.375H44.7524C36.4814 93.375 29.9294 93.375 24.8039 92.6865C19.5299 91.9755 15.2594 90.4815 11.8889 87.1155C8.52289 83.745 7.02889 79.4745 6.31789 74.2005C5.62939 69.0705 5.62939 62.523 5.62939 54.252V53.748C5.62939 45.477 5.62939 38.925 6.31789 33.7995C7.02889 28.5255 8.52289 24.255 11.8889 20.8845C15.2594 17.5185 19.5299 16.0245 24.8039 15.3135C29.9339 14.625 36.4769 14.625 44.7479 14.625ZM25.6949 22.005C21.1679 22.6125 18.5579 23.7555 16.6499 25.659C14.7509 27.5625 13.6079 30.1725 13.0004 34.6995C12.3794 39.3255 12.3704 45.4185 12.3704 54C12.3704 62.5815 12.3794 68.679 13.0004 73.305C13.6079 77.8275 14.7509 80.4375 16.6544 82.341C18.5579 84.2445 21.1679 85.3875 25.6949 85.995C30.3209 86.616 36.4139 86.625 44.9954 86.625H62.9954C71.5769 86.625 77.6744 86.616 82.3004 85.995C86.8229 85.3875 89.4329 84.2445 91.3364 82.341C93.2399 80.4375 94.3829 77.8275 94.9904 73.3005C95.6114 68.6745 95.6204 62.5815 95.6204 54C95.6204 45.4185 95.6114 39.3255 94.9904 34.695C94.3829 30.1725 93.2399 27.5625 91.3364 25.659C89.4329 23.7555 86.8229 22.6125 82.2959 22.005C77.6744 21.384 71.5769 21.375 62.9954 21.375H44.9954C36.4139 21.375 30.3254 21.384 25.6949 22.005Z" fill="black"/>
</svg>
