<svg width="149" height="149" viewBox="0 0 149 149" fill="none" xmlns="http://www.w3.org/2000/svg">
<path d="M18.6035 62.0108H130.223M43.4079 93.0163H43.4699M68.2123 93.0163H80.6144M18.6035 49.6087C18.6035 44.6748 20.5635 39.9429 24.0523 36.4541C27.5411 32.9654 32.2729 31.0054 37.2068 31.0054H111.62C116.554 31.0054 121.286 32.9654 124.774 36.4541C128.263 39.9429 130.223 44.6748 130.223 49.6087V99.2174C130.223 104.151 128.263 108.883 124.774 112.372C121.286 115.861 116.554 117.821 111.62 117.821H37.2068C32.2729 117.821 27.5411 115.861 24.0523 112.372C20.5635 108.883 18.6035 104.151 18.6035 99.2174V49.6087Z" stroke="url(#paint0_linear_413_1444)" stroke-width="3" stroke-linecap="round" stroke-linejoin="round"/>
<defs>
<linearGradient id="paint0_linear_413_1444" x1="34.3945" y1="2.71354" x2="156.447" y2="70.8368" gradientUnits="userSpaceOnUse">
<stop stop-color="#1B56A8"/>
<stop offset="1" stop-color="#6819AC"/>
</linearGradient>
</defs>
</svg>
