<svg width="294" height="288" viewBox="0 0 294 288" fill="none" xmlns="http://www.w3.org/2000/svg">
<path fill-rule="evenodd" clip-rule="evenodd" d="M147 46C121.009 46 96.0821 56.325 77.7035 74.7035C59.325 93.0821 49 118.009 49 144C49 169.991 59.325 194.918 77.7035 213.296C96.0821 231.675 121.009 242 147 242C172.991 242 197.918 231.675 216.296 213.296C234.675 194.918 245 169.991 245 144C245 118.009 234.675 93.0821 216.296 74.7035C197.918 56.325 172.991 46 147 46ZM24.5 144C24.5 76.3433 79.3433 21.5 147 21.5C214.657 21.5 269.5 76.3433 269.5 144C269.5 211.657 214.657 266.5 147 266.5C79.3433 266.5 24.5 211.657 24.5 144ZM104.125 119.5C101.736 119.5 98.686 121.019 96.7015 124.988C95.231 127.867 92.6823 130.047 89.6109 131.055C86.5394 132.062 83.1943 131.815 80.3043 130.367C77.4144 128.919 75.2141 126.387 74.1827 123.324C73.1514 120.26 73.3727 116.913 74.7985 114.012C80.1395 103.33 90.8092 95 104.125 95C117.441 95 128.098 103.33 133.451 114.012C134.877 116.913 135.099 120.26 134.067 123.324C133.036 126.387 130.836 128.919 127.946 130.367C125.056 131.815 121.711 132.062 118.639 131.055C115.568 130.047 113.019 127.867 111.549 124.988C109.564 121.019 106.526 119.5 104.125 119.5ZM189.875 119.5C187.486 119.5 184.436 121.019 182.452 124.988C181.738 126.439 180.745 127.734 179.529 128.8C178.313 129.865 176.898 130.679 175.366 131.195C173.834 131.71 172.215 131.918 170.602 131.805C168.989 131.692 167.415 131.261 165.969 130.537C164.524 129.812 163.236 128.809 162.18 127.585C161.125 126.361 160.322 124.939 159.818 123.403C159.314 121.867 159.119 120.246 159.244 118.635C159.37 117.023 159.813 115.452 160.548 114.012C165.902 103.33 176.559 95 189.875 95C203.191 95 213.848 103.33 219.201 114.012C220.627 116.913 220.849 120.26 219.817 123.324C218.786 126.387 216.586 128.919 213.696 130.367C210.806 131.815 207.461 132.062 204.389 131.055C201.318 130.047 198.769 127.867 197.299 124.988C195.314 121.019 192.276 119.5 189.875 119.5ZM105.399 172.641C106.464 171.433 107.756 170.448 109.201 169.741C110.647 169.033 112.218 168.617 113.824 168.517C115.43 168.417 117.041 168.635 118.563 169.157C120.085 169.68 121.49 170.497 122.696 171.562C129.188 177.296 137.678 180.75 147 180.75C156.322 180.75 164.824 177.296 171.304 171.562C173.741 169.412 176.932 168.317 180.176 168.519C183.42 168.721 186.45 170.204 188.601 172.641C190.752 175.077 191.846 178.268 191.644 181.512C191.442 184.756 189.96 187.787 187.523 189.938C176.343 199.827 161.926 205.275 147 205.25C132.074 205.275 117.657 199.827 106.477 189.938C105.27 188.873 104.285 187.581 103.577 186.135C102.87 184.69 102.454 183.119 102.354 181.512C102.254 179.906 102.471 178.296 102.994 176.773C103.516 175.251 104.333 173.847 105.399 172.641Z" fill="#32A071"/>
</svg>
