<svg width="218" height="219" viewBox="0 0 218 219" fill="none" xmlns="http://www.w3.org/2000/svg">
<path d="M69.415 145.714C67.2231 147.555 65.8454 150.186 65.5807 153.036C65.316 155.886 66.1858 158.726 68.0013 160.939C68.9142 162.04 70.0355 162.95 71.3007 163.617C72.566 164.285 73.9505 164.696 75.3749 164.827C76.7992 164.958 78.2355 164.807 79.6015 164.383C80.9674 163.958 82.2362 163.268 83.3351 162.353C90.6048 156.491 99.6618 153.295 109 153.295C118.338 153.295 127.395 156.491 134.665 162.353C136.622 163.974 139.084 164.859 141.625 164.854C143.839 164.832 145.993 164.135 147.801 162.856C149.608 161.577 150.981 159.776 151.738 157.696C152.495 155.615 152.598 153.353 152.035 151.212C151.471 149.071 150.268 147.153 148.585 145.714C137.363 136.694 123.398 131.776 109 131.776C94.6025 131.776 80.6367 136.694 69.415 145.714ZM78.6588 93.6225C80.6964 95.648 83.4527 96.7849 86.3257 96.7849C89.1987 96.7849 91.955 95.648 93.9926 93.6225C96.018 91.5849 97.1549 88.8286 97.1549 85.9556C97.1549 83.0826 96.018 80.3263 93.9926 78.2887C87.769 72.3835 79.5168 69.0915 70.9375 69.0915C62.3583 69.0915 54.1061 72.3835 47.8825 78.2887C46.7441 79.2637 45.8195 80.4634 45.1668 81.8126C44.514 83.1618 44.1472 84.6313 44.0894 86.129C44.0315 87.6267 44.2839 89.1202 44.8306 90.5158C45.3773 91.9113 46.2067 93.1787 47.2665 94.2386C48.3263 95.2984 49.5938 96.1277 50.9893 96.6744C52.3848 97.2212 53.8783 97.4735 55.376 97.4157C56.8737 97.3578 58.3433 96.991 59.6925 96.3383C61.0417 95.6855 62.2414 94.7609 63.2163 93.6225C64.2273 92.6032 65.4301 91.7942 66.7553 91.2421C68.0805 90.6899 69.5019 90.4057 70.9375 90.4057C72.3732 90.4057 73.7946 90.6899 75.1198 91.2421C76.445 91.7942 77.6478 92.6032 78.6588 93.6225ZM109 0.75C87.4913 0.75 66.4656 7.12808 48.5818 19.0777C30.6979 31.0273 16.7592 48.0117 8.52815 67.8832C0.29712 87.7546 -1.85649 109.621 2.33965 130.716C6.53579 151.812 16.8932 171.189 32.1022 186.398C47.3111 201.607 66.6885 211.964 87.784 216.16C108.879 220.357 130.745 218.203 150.617 209.972C170.488 201.741 187.473 187.802 199.422 169.918C211.372 152.034 217.75 131.009 217.75 109.5C217.75 95.2188 214.937 81.0773 209.472 67.8832C204.007 54.689 195.996 42.7005 185.898 32.6021C175.8 22.5038 163.811 14.4933 150.617 9.0281C137.423 3.5629 123.281 0.75 109 0.75ZM109 196.5C91.7931 196.5 74.9725 191.398 60.6654 181.838C46.3584 172.278 35.2074 158.691 28.6225 142.793C22.0377 126.896 20.3148 109.403 23.6717 92.5271C27.0286 75.6508 35.3146 60.1489 47.4818 47.9817C59.6489 35.8145 75.1508 27.5286 92.0272 24.1717C108.904 20.8148 126.396 22.5377 142.294 29.1225C158.191 35.7073 171.778 46.8583 181.338 61.1654C190.898 75.4725 196 92.293 196 109.5C196 132.574 186.834 154.703 170.518 171.018C154.203 187.334 132.074 196.5 109 196.5ZM170.118 78.2887C163.894 72.3835 155.642 69.0915 147.063 69.0915C138.483 69.0915 130.231 72.3835 124.008 78.2887C122.226 80.3692 121.295 83.0452 121.401 85.7822C121.506 88.5192 122.641 91.1155 124.578 93.0522C126.515 94.989 129.111 96.1236 131.848 96.2294C134.585 96.3351 137.261 95.4041 139.341 93.6225C140.352 92.6032 141.555 91.7942 142.88 91.2421C144.206 90.6899 145.627 90.4057 147.063 90.4057C148.498 90.4057 149.92 90.6899 151.245 91.2421C152.57 91.7942 153.773 92.6032 154.784 93.6225C156.821 95.648 159.578 96.7849 162.451 96.7849C165.324 96.7849 168.08 95.648 170.118 93.6225C172.143 91.5849 173.28 88.8286 173.28 85.9556C173.28 83.0826 172.143 80.3263 170.118 78.2887Z" fill="#B3261E"/>
</svg>
