<svg width="51" height="51" viewBox="0 0 51 51" fill="none" xmlns="http://www.w3.org/2000/svg">
<path d="M18.1262 22.3763C17.9803 22.5328 17.8044 22.6584 17.6089 22.7455C17.4134 22.8326 17.2023 22.8795 16.9883 22.8833C16.7743 22.887 16.5618 22.8477 16.3633 22.7675C16.1649 22.6874 15.9846 22.568 15.8333 22.4167C15.6819 22.2654 15.5626 22.0851 15.4824 21.8866C15.4023 21.6882 15.3629 21.4756 15.3667 21.2616C15.3705 21.0476 15.4173 20.8366 15.5044 20.6411C15.5915 20.4456 15.7171 20.2697 15.8737 20.1238L24.3737 11.6238C24.6725 11.3253 25.0776 11.1577 25.5 11.1577C25.9223 11.1577 26.3274 11.3253 26.6262 11.6238L35.1262 20.1238C35.2828 20.2697 35.4084 20.4456 35.4955 20.6411C35.5826 20.8366 35.6294 21.0476 35.6332 21.2616C35.637 21.4756 35.5976 21.6882 35.5175 21.8866C35.4373 22.0851 35.318 22.2654 35.1667 22.4167C35.0153 22.568 34.8351 22.6874 34.6366 22.7675C34.4382 22.8477 34.2256 22.887 34.0116 22.8833C33.7976 22.8795 33.5866 22.8326 33.3911 22.7455C33.1956 22.6584 33.0196 22.5328 32.8737 22.3763L27.0937 16.5963V37.1875C27.0937 37.6102 26.9258 38.0156 26.6269 38.3145C26.328 38.6133 25.9226 38.7813 25.5 38.7813C25.0773 38.7813 24.6719 38.6133 24.373 38.3145C24.0741 38.0156 23.9062 37.6102 23.9062 37.1875V16.5963L18.1262 22.3763Z" fill="#F9F7F7"/>
</svg>
